<svg viewBox="0 0 24 24" fill="none" xmlns="http://www.w3.org/2000/svg" id="Share--Streamline-Solar-Ar" height="24" width="24">
  <desc>
    Share Streamline Icon: https://streamlinehq.com
  </desc>
  <path d="M9 12c0 1.3807 -1.11929 2.5 -2.5 2.5S4 13.3807 4 12s1.11929 -2.5 2.5 -2.5S9 10.6193 9 12Z" stroke="#000000" stroke-width="1.5"></path>
  <path d="M14 6.5 9 10" stroke="#000000" stroke-linecap="round" stroke-width="1.5"></path>
  <path d="M14 17.5 9 14" stroke="#000000" stroke-linecap="round" stroke-width="1.5"></path>
  <path d="M19 18.5c0 1.3807 -1.1193 2.5 -2.5 2.5S14 19.8807 14 18.5s1.1193 -2.5 2.5 -2.5 2.5 1.1193 2.5 2.5Z" stroke="#000000" stroke-width="1.5"></path>
  <path d="M19 5.5C19 6.88071 17.8807 8 16.5 8S14 6.88071 14 5.5 15.1193 3 16.5 3 19 4.11929 19 5.5Z" stroke="#000000" stroke-width="1.5"></path>
</svg>